# This file uses centimeters as units for non-parametric coordinates.

mtllib brush_3d.mtl
g default
v -0.493741 1.465412 0.027402
v 0.493741 1.465412 0.027402
v -0.493741 1.770364 0.027402
v 0.493741 1.770364 0.027402
v -0.705345 1.465412 0.593247
v 0.705345 1.465412 0.593247
v -0.705345 1.770364 0.593247
v 0.705345 1.770364 0.593247
v -0.822902 1.465412 3.190476
v 0.822902 1.465412 3.190476
v -0.822902 1.770364 3.190476
v 0.822902 1.770364 3.190476
v -0.078224 1.574465 7.042648
v 0.078224 1.574465 7.042648
v -0.078224 1.661311 7.042648
v 0.078224 1.661311 7.042648
v 0.493741 1.493720 0.027402
v 0.705345 1.493720 0.593247
v 0.822902 1.493720 3.190476
v 0.078224 1.582526 7.042648
v 0.493741 1.708336 0.027402
v 0.705345 1.708336 0.593247
v 0.822902 1.708336 3.190476
v 0.078224 1.643646 7.042648
v 1.322521 1.770364 -0.406016
v 1.322521 1.708336 -0.406016
v 1.322521 1.493720 -0.406016
v 1.322521 1.465412 -0.406016
v -1.322521 1.465412 -0.406016
v -1.322521 1.770364 -0.406016
v 0.074338 1.661311 7.042648
v 0.782022 1.770364 3.190476
v 0.670305 1.770364 0.593247
v 0.469214 1.770364 0.027402
v 1.256822 1.770364 -0.406016
v -0.071996 1.661311 7.042648
v -0.757389 1.770364 3.190477
v -0.649191 1.770364 0.593247
v -0.454434 1.770364 0.027402
v -1.217232 1.770364 -0.406016
v -1.262359 1.465412 -0.406016
v -0.471281 1.465412 0.027402
v -0.673258 1.465412 0.593247
v -0.785468 1.465412 3.190477
v -0.074666 1.574465 7.042648
v -1.316011 1.770364 -0.402612
v -1.316011 1.465412 -0.402612
v -1.256145 1.465412 -0.402612
v 1.316011 1.465412 -0.402612
v 1.316011 1.493720 -0.402612
v 1.316011 1.708336 -0.402612
v 1.316011 1.770364 -0.402612
v 1.250635 1.770364 -0.402612
v -1.211240 1.770364 -0.402612
vt 0.375000 0.000000
vt 0.625000 0.000000
vt 0.375000 0.250000
vt 0.625000 0.250000
vt 0.375000 1.000000
vt 0.625000 1.000000
vt 0.000000 0.000000
vt 1.000000 0.000000
vt 1.000000 1.000000
vt 0.000000 1.000000
vt 0.000000 0.000000
vt 1.000000 0.000000
vt 1.000000 1.000000
vt 0.000000 1.000000
vt 0.000000 0.000000
vt 1.000000 0.000000
vt 1.000000 1.000000
vt 0.000000 1.000000
vt 0.000000 0.000000
vt 1.000000 0.000000
vt 1.000000 1.000000
vt 0.000000 1.000000
vt 0.000000 0.000000
vt 1.000000 0.000000
vt 1.000000 1.000000
vt 0.000000 1.000000
vt 0.000000 0.000000
vt 1.000000 0.000000
vt 1.000000 1.000000
vt 0.000000 1.000000
vt 0.000000 0.000000
vt 1.000000 0.000000
vt 1.000000 1.000000
vt 0.000000 1.000000
vt 0.000000 0.000000
vt 1.000000 0.000000
vt 1.000000 1.000000
vt 0.000000 1.000000
vt 0.000000 0.000000
vt 1.000000 0.000000
vt 1.000000 1.000000
vt 0.000000 1.000000
vt 0.000000 0.000000
vt 1.000000 0.000000
vt 1.000000 1.000000
vt 0.000000 1.000000
vt 0.000000 0.000000
vt 1.000000 0.000000
vt 1.000000 1.000000
vt 0.000000 1.000000
vt 0.000000 0.000000
vt 1.000000 0.000000
vt 1.000000 1.000000
vt 0.000000 1.000000
vt 0.092827 0.000000
vt 0.625000 0.023207
vt 0.092827 0.000000
vt 0.092827 1.000000
vt 0.092827 0.000000
vt 0.092827 1.000000
vt 0.092827 1.000000
vt 0.796597 0.000000
vt 0.625000 0.199149
vt 0.796597 0.000000
vt 0.796597 1.000000
vt 0.796597 0.000000
vt 0.796597 1.000000
vt 0.796597 1.000000
vt 0.625000 0.500000
vt 0.875000 0.250000
vt 0.875000 0.199149
vt 0.875000 0.023207
vt 0.875000 0.000000
vt 0.625000 0.750000
vt 0.375000 0.750000
vt 0.125000 0.000000
vt 0.125000 0.250000
vt 0.375000 0.500000
vt 0.024839 1.000000
vt 0.000000 1.000000
vt 0.024839 1.000000
vt 0.024839 0.000000
vt 0.024839 1.000000
vt 0.024839 0.000000
vt 0.618790 0.250000
vt 0.024839 0.000000
vt 0.618790 0.500000
vt 0.960194 1.000000
vt 0.000000 1.000000
vt 0.960194 1.000000
vt 0.960194 0.000000
vt 0.960194 1.000000
vt 0.960194 0.000000
vt 0.384952 0.250000
vt 0.960194 0.000000
vt 0.384952 0.500000
vt 0.380686 0.750000
vt 0.022745 0.000000
vt 0.380686 1.000000
vt 0.022745 0.000000
vt 0.022745 1.000000
vt 0.022745 0.000000
vt 0.022745 1.000000
vt 0.000000 1.000000
vt 0.022745 1.000000
vt 0.126964 0.250000
vt 0.375000 0.498036
vt 0.126964 0.000000
vt 0.375000 0.751964
vt 0.380686 0.751964
vt 0.625000 0.751964
vt 0.873036 0.000000
vt 0.873036 0.023207
vt 0.873036 0.199149
vt 0.625000 0.498036
vt 0.873036 0.250000
vt 0.618790 0.498036
vt 0.384952 0.498036
vn 0.000000 1.000000 0.000000
vn 0.000000 1.000000 0.000000
vn 0.000000 1.000000 0.000005
vn 0.000000 1.000000 0.000003
vn 0.000000 -1.000000 0.000001
vn 0.000000 -1.000000 -0.000000
vn 0.000000 -1.000000 -0.000000
vn 0.000000 -1.000000 0.000000
vn 0.463416 0.000000 0.886141
vn 0.463416 0.000000 0.886141
vn 0.463416 0.000000 0.886141
vn 0.463416 0.000000 0.886141
vn -0.463416 0.000000 0.886141
vn -0.463416 0.000000 0.886141
vn -0.463416 0.000000 0.886141
vn -0.463416 0.000000 0.886141
vn 0.000000 -1.000000 -0.000002
vn 0.000000 -1.000000 -0.000000
vn 0.000000 -1.000000 -0.000000
vn 0.000000 -1.000000 -0.000002
vn 0.000000 1.000000 0.000000
vn 0.000000 1.000000 0.000000
vn 0.000000 1.000000 0.000000
vn 0.000000 1.000000 0.000000
vn -0.936649 0.000000 -0.350269
vn -0.936649 0.000000 -0.350269
vn -0.936649 0.000000 -0.350269
vn -0.936649 0.000000 -0.350269
vn 0.936650 0.000000 -0.350268
vn 0.936649 0.000000 -0.350269
vn 0.936649 0.000000 -0.350269
vn 0.936650 0.000000 -0.350268
vn 0.000000 -1.000000 0.000000
vn 0.000000 -1.000000 0.000000
vn 0.000000 -1.000000 0.000000
vn 0.000000 -1.000000 0.000000
vn 0.000000 1.000000 0.000000
vn 0.000000 1.000000 0.000000
vn 0.000000 1.000000 0.000000
vn 0.000000 1.000000 0.000000
vn -0.998977 0.000000 -0.045216
vn -0.998977 0.000000 -0.045216
vn -0.998977 0.000000 -0.045216
vn -0.998977 0.000000 -0.045216
vn 0.998977 0.000000 -0.045216
vn 0.998977 0.000000 -0.045216
vn 0.998977 0.000000 -0.045216
vn 0.998977 0.000000 -0.045216
vn -0.000001 -0.999600 0.028298
vn -0.000000 -0.999600 0.028298
vn 0.000000 -0.999600 0.028298
vn -0.000001 -0.999600 0.028298
vn -0.000000 0.999600 0.028297
vn 0.000000 0.999600 0.028298
vn -0.000000 0.999600 0.028298
vn -0.000000 0.999600 0.028297
vn -0.981823 0.000000 0.189800
vn -0.981823 0.000000 0.189800
vn -0.981823 0.000000 0.189800
vn -0.981823 0.000000 0.189800
vn 0.981823 0.000000 0.189800
vn 0.981823 0.000000 0.189800
vn 0.981823 0.000000 0.189800
vn 0.981823 0.000000 0.189800
vn 0.463416 0.000000 0.886141
vn 0.463416 0.000000 0.886141
vn 0.936649 0.000000 -0.350270
vn 0.936649 0.000000 -0.350270
vn 0.998977 0.000000 -0.045216
vn 0.998977 0.000000 -0.045216
vn 0.981823 0.000000 0.189800
vn 0.981823 0.000000 0.189800
vn 0.463416 0.000000 0.886141
vn 0.463416 0.000000 0.886141
vn 0.936649 0.000000 -0.350269
vn 0.936649 0.000000 -0.350269
vn 0.998977 0.000000 -0.045216
vn 0.998977 0.000000 -0.045216
vn 0.981823 0.000000 0.189800
vn 0.981823 0.000000 0.189800
vn 0.000000 -0.000003 1.000000
vn 0.000000 -0.000003 1.000000
vn 0.000000 -0.000003 1.000000
vn 0.000000 -0.000003 1.000000
vn 0.000000 -0.000003 1.000000
vn 0.000000 -0.000003 1.000000
vn 0.000000 -0.000003 1.000000
vn 0.000000 -0.000003 1.000000
vn 0.000000 -0.000003 1.000000
vn 0.000000 0.999600 0.028298
vn 0.000000 0.999600 0.028298
vn 0.000000 0.999600 0.028298
vn 0.000000 0.999600 0.028298
vn 0.000000 1.000000 -0.000000
vn 0.000000 1.000000 -0.000000
vn 0.000000 1.000000 -0.000000
vn 0.000000 1.000000 -0.000000
vn 0.000000 1.000000 0.000000
vn 0.000000 1.000000 0.000000
vn 0.000000 1.000000 0.000000
vn 0.000000 1.000000 0.000000
vn 0.000000 1.000000 0.000004
vn 0.000000 1.000000 0.000004
vn 0.000000 1.000000 -0.000000
vn 0.000000 1.000000 0.000000
vn 0.000000 -1.000000 -0.000000
vn 0.000000 -1.000000 -0.000000
vn 0.000000 -1.000000 0.000000
vn 0.000000 -1.000000 0.000000
vn 0.000000 -1.000000 0.000000
vn 0.000000 -1.000000 0.000000
vn 0.000000 -0.999600 0.028298
vn 0.000000 -0.999600 0.028298
vn -0.463411 0.000000 0.886144
vn -0.463411 0.000000 0.886144
vn 0.000000 -1.000000 0.000018
vn 0.000000 -1.000000 0.000001
vn 0.000000 -1.000000 -0.000001
vn 0.463409 0.000000 0.886144
vn 0.463409 0.000000 0.886145
vn 0.463409 0.000000 0.886145
vn 0.463410 0.000000 0.886144
vn 0.000000 1.000000 0.000000
vn 0.000000 1.000000 -0.000014
vn 0.000000 1.000000 -0.000006
vn 0.000000 1.000000 0.000036
s 1
g pCube1
usemtl initialShadingGroup
f 39/94/1 54/118/2 46/107/3 3/3/4
s 2
f 47/109/5 48/110/6 42/99/7 1/5/8
s 3
f 2/2/9 49/112/10 50/113/11 17/56/12
s 4
f 47/108/13 1/1/14 3/3/15 46/106/16
s 5
f 1/7/17 42/98/18 43/101/19 5/10/20
s 6
f 38/92/21 39/95/22 3/12/23 7/13/24
s off
f 3/15/25 1/16/26 5/17/27 7/18/28
s 7
f 2/19/29 17/55/30 18/58/31 6/22/32
s 8
f 5/23/33 43/100/34 44/103/35 9/26/36
s 9
f 37/90/37 38/93/38 7/28/39 11/29/40
s off
f 7/31/41 5/32/42 9/33/43 11/34/44
s 10
f 6/35/45 18/57/46 19/60/47 10/38/48
s 11
f 9/39/49 44/102/50 45/105/51 13/42/52
s 12
f 15/45/53 36/88/54 37/91/55 11/44/56
s off
f 11/47/57 9/48/58 13/49/59 15/50/60
s 13
f 10/51/61 19/59/62 20/61/63 14/54/64
s 3
f 17/56/12 50/113/11 51/114/65 21/63/66
s 7
f 18/58/31 17/55/30 21/62/67 22/65/68
s 10
f 19/60/47 18/57/46 22/64/69 23/67/70
s 13
f 20/61/63 19/59/62 23/66/71 24/68/72
s 3
f 21/63/66 51/114/65 52/116/73 4/4/74
s 7
f 22/65/68 21/62/67 4/20/75 8/21/76
s 10
f 23/67/70 22/64/69 8/36/77 12/37/78
s 13
f 24/68/72 23/66/71 12/52/79 16/53/80
s off
f 14/54/81 20/61/82 24/68/83 16/46/84 31/80/85 36/89/86 15/50/87 13/42/88 45/104/89
s 12
f 31/79/90 16/46/91 12/43/92 32/82/93
s 9
f 12/30/94 8/27/95 33/84/96 32/81/97
s 6
f 8/14/98 4/11/99 34/86/100 33/83/101
s 1
f 4/4/102 52/115/103 53/117/104 34/85/105
s 12
f 36/88/54 31/79/90 32/82/93 37/91/55
s 9
f 32/81/97 33/84/96 38/93/38 37/90/37
s 6
f 33/83/101 34/86/100 39/95/22 38/92/21
s 1
f 34/85/105 53/117/104 54/118/2 39/94/1
s 2
f 48/110/6 49/111/106 2/6/107 42/99/7
s 5
f 43/101/19 42/98/18 2/8/108 6/9/109
s 8
f 44/103/35 43/100/34 6/24/110 10/25/111
s 11
f 45/105/51 44/102/50 10/40/112 14/41/113
s 4
f 29/76/114 47/108/13 46/106/16 30/77/115
s 2
f 29/75/116 41/97/117 48/110/6 47/109/5
f 41/97/117 28/74/118 49/111/106 48/110/6
s 3
f 50/113/11 49/112/10 28/73/119 27/72/120
f 51/114/65 50/113/11 27/72/120 26/71/121
f 52/116/73 51/114/65 26/71/121 25/70/122
s 1
f 53/117/104 52/115/103 25/69/123 35/87/124
f 54/118/2 53/117/104 35/87/124 40/96/125
f 46/107/3 54/118/2 40/96/125 30/78/126
g default
v -1.260345 1.468146 -1.492275
v 1.272825 1.468146 -1.492275
v -1.260345 1.764885 -1.492275
v 1.272825 1.764885 -1.492275
v -1.174700 1.733837 -2.568099
v 1.187180 1.733837 -2.568099
v -1.174700 1.499194 -2.568099
v 1.187180 1.499194 -2.568099
vt 0.375000 0.000000
vt 0.625000 0.000000
vt 0.375000 0.250000
vt 0.625000 0.250000
vt 0.375000 0.500000
vt 0.625000 0.500000
vt 0.375000 0.750000
vt 0.625000 0.750000
vt 0.375000 1.000000
vt 0.625000 1.000000
vt 0.875000 0.000000
vt 0.875000 0.250000
vt 0.125000 0.000000
vt 0.125000 0.250000
vn 0.000000 0.999584 -0.028847
vn 0.000000 0.999584 -0.028847
vn 0.000000 0.999584 -0.028847
vn 0.000000 0.999584 -0.028847
vn 0.000000 -0.999584 -0.028847
vn 0.000000 -0.999584 -0.028847
vn 0.000000 -0.999584 -0.028847
vn 0.000000 -0.999584 -0.028847
vn 0.996846 0.000000 -0.079357
vn 0.996846 0.000000 -0.079358
vn 0.996846 0.000000 -0.079357
vn 0.996846 0.000000 -0.079358
vn -0.996846 0.000000 -0.079357
vn -0.996846 0.000000 -0.079357
vn -0.996846 0.000000 -0.079357
vn -0.996846 0.000000 -0.079357
vn 0.000000 0.000000 -1.000000
vn 0.000000 0.000000 -1.000000
vn 0.000000 0.000000 -1.000000
vn 0.000000 0.000000 -1.000000
s off
g pCube3
usemtl initialShadingGroup
f 57/121/127 58/122/128 60/124/129 59/123/130
f 61/125/131 62/126/132 56/128/133 55/127/134
f 56/120/135 62/129/136 60/130/137 58/122/138
f 61/131/139 55/119/140 57/121/141 59/132/142
f 60/130/143 62/126/144 61/131/145 59/123/146
g default
v -1.342390 1.433628 -0.376328
v 1.361998 1.433628 -0.376328
v -1.342390 1.802704 -0.376328
v 1.361998 1.802704 -0.376328
v -1.336118 1.804024 -1.529831
v 1.368404 1.804024 -1.529831
v -1.336118 1.429007 -1.529831
v 1.368404 1.429007 -1.529831
v -1.342188 1.802747 -0.413557
v -1.342188 1.433478 -0.413557
v 1.362204 1.433478 -0.413557
v 1.362204 1.802747 -0.413557
v -1.336259 1.803994 -1.504046
v -1.336259 1.429110 -1.504046
v 1.368261 1.429110 -1.504046
v 1.368261 1.803994 -1.504046
v -1.296302 1.802704 -0.376328
v -1.296099 1.802747 -0.413557
v -1.290168 1.803994 -1.504046
v -1.290027 1.804024 -1.529831
v 1.320383 1.804024 -1.529831
v 1.320240 1.803994 -1.504046
v 1.314186 1.802747 -0.413557
v 1.313979 1.802704 -0.376328
v 1.339802 1.429007 -1.529831
v 1.339659 1.429110 -1.504046
v 1.333604 1.433478 -0.413557
v 1.333397 1.433628 -0.376328
v -1.271640 1.429007 -1.529831
v -1.271781 1.429110 -1.504046
v -1.277713 1.433478 -0.413557
v -1.277916 1.433628 -0.376328
vt 0.375000 0.000000
vt 0.625000 0.000000
vt 0.375000 0.250000
vt 0.625000 0.250000
vt 0.375000 0.500000
vt 0.625000 0.500000
vt 0.375000 0.750000
vt 0.625000 0.750000
vt 0.375000 1.000000
vt 0.625000 1.000000
vt 0.875000 0.000000
vt 0.875000 0.250000
vt 0.125000 0.000000
vt 0.125000 0.250000
vt 0.366931 0.250000
vt 0.375000 0.258069
vt 0.366931 0.000000
vt 0.375000 0.991931
vt 0.625000 0.991931
vt 0.633069 0.000000
vt 0.625000 0.258069
vt 0.633069 0.250000
vt 0.130588 0.250000
vt 0.375000 0.494412
vt 0.130588 0.000000
vt 0.375000 0.755588
vt 0.625000 0.755588
vt 0.869412 0.000000
vt 0.625000 0.494412
vt 0.869412 0.250000
vt 0.379261 0.250000
vt 0.379261 0.258069
vt 0.379261 0.494412
vt 0.379261 0.500000
vt 0.620561 0.500000
vt 0.620561 0.494412
vt 0.620561 0.258069
vt 0.620561 0.250000
vt 0.622356 0.750000
vt 0.622356 0.755588
vt 0.622356 0.991931
vt 0.622356 1.000000
vt 0.380960 0.750000
vt 0.380960 0.755588
vt 0.380960 0.991931
vt 0.380960 1.000000
vn 0.000000 0.999999 0.001140
vn 0.000000 0.999999 0.001142
vn 0.000000 0.999999 0.001143
vn 0.000000 0.999999 0.001143
vn 0.000000 -0.999992 0.004006
vn 0.000000 -0.999992 0.004006
vn 0.000000 -0.999992 0.004005
vn 0.000000 -0.999992 0.004008
vn 0.999985 0.000000 0.005552
vn 0.999985 0.000000 0.005554
vn 0.999985 0.000000 0.005554
vn 0.999985 0.000000 0.005552
vn -0.999985 0.000000 -0.005437
vn -0.999985 0.000000 -0.005434
vn -0.999985 0.000000 -0.005434
vn -0.999985 0.000000 -0.005437
vn -0.999985 0.000000 -0.005437
vn -0.999985 0.000000 -0.005437
vn 0.000000 -0.999992 0.004006
vn 0.000000 -0.999992 0.004006
vn 0.999985 0.000000 0.005554
vn 0.999985 0.000000 0.005554
vn 0.000000 0.999999 0.001144
vn 0.000000 0.999999 0.001143
vn -0.999985 0.000000 -0.005437
vn -0.999985 0.000000 -0.005437
vn 0.000000 -0.999992 0.004010
vn 0.000000 -0.999992 0.004008
vn 0.999985 0.000000 0.005552
vn 0.999985 0.000000 0.005552
vn 0.000000 0.999999 0.001148
vn 0.000000 0.999999 0.001142
vn 0.000000 0.999999 0.001142
vn 0.000000 0.999999 0.001141
vn 0.000000 0.999999 0.001143
vn 0.000000 0.999999 0.001143
vn 0.000000 0.999999 0.001144
vn 0.000000 0.999999 0.001144
vn 0.000000 0.999999 0.001148
vn 0.000000 0.999999 0.001149
vn 0.000000 -0.999992 0.004008
vn 0.000000 -0.999992 0.004008
vn 0.000000 -0.999992 0.004006
vn 0.000000 -0.999992 0.004006
vn 0.000000 -0.999992 0.004006
vn 0.000000 -0.999992 0.004006
vn 0.000000 -0.999992 0.004005
vn 0.000000 -0.999992 0.004006
vn 0.000000 0.000000 -1.000000
vn 0.000000 0.000000 -1.000000
vn 0.000000 0.000000 -1.000000
vn 0.000000 0.000000 -1.000000
vn 0.000000 0.000000 -1.000000
vn 0.000000 0.000000 -1.000000
vn 0.000000 0.000000 -1.000000
vn 0.000000 0.000000 -1.000000
vn 0.000000 0.000000 1.000000
vn 0.000000 0.000000 1.000000
vn 0.000000 0.000000 1.000000
vn 0.000000 0.000000 1.000000
vn 0.000000 0.000000 1.000000
vn 0.000000 0.000000 1.000000
vn 0.000000 0.000000 1.000000
vn 0.000000 0.000000 1.000000
s 1
g pCube2
usemtl initialShadingGroup
f 65/135/147 79/163/148 80/164/149 71/148/150
s 2
f 72/150/151 93/177/152 94/178/153 63/141/154
s 3
f 64/134/155 73/152/156 74/154/157 66/136/158
s 4
f 72/149/159 63/133/160 65/135/161 71/147/162
f 76/157/163 72/149/159 71/147/162 75/155/164
s 2
f 76/158/165 92/176/166 93/177/152 72/150/151
s 3
f 74/154/157 73/152/156 77/160/167 78/162/168
s 1
f 71/148/150 80/164/149 81/165/169 75/156/170
s 4
f 69/145/171 76/157/163 75/155/164 67/146/172
s 2
f 69/139/173 91/175/174 92/176/166 76/158/165
s 3
f 78/162/168 77/160/167 70/143/175 68/144/176
s 1
f 75/156/170 81/165/169 82/166/177 67/137/178
f 86/170/179 66/136/180 74/153/181 85/169/182
f 84/168/183 85/169/182 74/153/181 78/161/184
f 83/167/185 84/168/183 78/161/184 68/138/186
f 82/166/177 81/165/169 84/168/183 83/167/185
f 81/165/169 80/164/149 85/169/182 84/168/183
f 79/163/148 86/170/179 85/169/182 80/164/149
s 2
f 87/171/187 70/140/188 77/159/189 88/172/190
f 89/173/191 88/172/190 77/159/189 73/151/192
f 90/174/193 89/173/191 73/151/192 64/142/194
f 91/175/174 87/171/187 88/172/190 92/176/166
f 93/177/152 92/176/166 88/172/190 89/173/191
f 94/178/153 93/177/152 89/173/191 90/174/193
s off
f 82/166/195 83/167/196 68/144/197 70/140/198 87/171/199 91/175/200 69/145/201 67/137/202
s 7
f 86/170/203 90/174/204 64/134/205 66/136/206
f 94/178/207 90/174/204 86/170/203 79/163/208
f 94/178/207 79/163/208 65/135/209 63/141/210
